<?xml version="1.0" encoding="UTF-8"?>
<svg version="1.1" xmlns="http://www.w3.org/2000/svg" width="225" height="225">
<path d="M0 0 C74.25 0 148.5 0 225 0 C225 74.25 225 148.5 225 225 C150.75 225 76.5 225 0 225 C0 150.75 0 76.5 0 0 Z " fill="#252525" transform="translate(0,0)"/>
<path d="M0 0 C1.85546875 1.39973958 3.7109375 2.79947917 5.56640625 4.19921875 C7.82379703 5.97527243 7.82379703 5.97527243 9.82617188 6.92285156 C11.96617849 8.11427369 13.42495049 9.11355643 15 11 C15.9938059 15.76979166 15.47749091 20.61928608 15.1953125 25.453125 C15.14741836 28.52633208 15.23615867 31.01873489 16 34 C18.018924 35.69248568 18.018924 35.69248568 20.49829102 37.02416992 C23.44896164 39.17635426 24.79205628 40.26890183 25.80114746 43.81671143 C26.04002997 47.29346318 26.01252339 50.66985373 25.87890625 54.15234375 C25.86617172 55.40761368 25.85343719 56.66288361 25.84031677 57.95619202 C25.79859174 61.27444888 25.71796776 64.587007 25.61798096 67.90368652 C25.52545968 71.29531913 25.48471404 74.68754397 25.43945312 78.08007812 C25.34040846 84.72161221 25.18995498 91.36047755 25 98 C25.82346924 97.97607178 26.64693848 97.95214355 27.49536133 97.92749023 C29.11607544 97.89957397 29.11607544 97.89957397 30.76953125 97.87109375 C32.37598511 97.83520142 32.37598511 97.83520142 34.01489258 97.79858398 C36.9928633 97.99951846 38.34054294 98.29108318 40.6875 100.0625 C43.39471326 103.50139252 43.5417453 105.72463469 44 110 C40.47945086 110.11709643 36.95940888 110.1875469 33.4375 110.25 C32.44685547 110.28351563 31.45621094 110.31703125 30.43554688 110.3515625 C24.01399718 110.43689871 20.22963516 109.80081156 15 106 C10.5156897 101.21673567 10.85701417 96.07767552 10.87402344 89.80664062 C10.8721553 88.98342819 10.87028717 88.16021576 10.86836243 87.3120575 C10.86436395 85.52727064 10.8622841 83.74247868 10.86190033 81.95768738 C10.85848124 78.16477142 10.83711899 74.37202635 10.81666946 70.57917023 C10.77864655 63.51873957 10.74738978 56.45849402 10.74951172 49.39794922 C10.7502976 44.48477685 10.72699267 39.57223362 10.6876297 34.65922546 C10.67715291 32.78694993 10.67565799 30.91460195 10.68328094 29.04231262 C10.69287626 26.42529853 10.67177434 23.81020026 10.64355469 21.19335938 C10.65375137 20.41921188 10.66394806 19.64506439 10.67445374 18.84745789 C10.59740222 14.86793915 10.34395708 13.34014718 7.45977783 10.48791504 C6.64805115 9.99690308 5.83632446 9.50589111 5 9 C4.95364368 21.0220533 4.91811398 33.0440853 4.89637566 45.06620979 C4.88594196 50.64866418 4.87179019 56.23105739 4.84912109 61.81347656 C4.82737813 67.20159379 4.81542826 72.58965219 4.81024551 77.97780991 C4.80655239 80.0326823 4.79934065 82.08755151 4.78853989 84.14239883 C4.77400579 87.02224924 4.77202288 89.90185706 4.77294922 92.78173828 C4.76575867 93.62978531 4.75856812 94.47783234 4.75115967 95.35157776 C4.76721173 99.96848532 5.23238978 103.65388844 7 108 C7.66 108 8.32 108 9 108 C9 108.66 9 109.32 9 110 C0.75 110 -7.5 110 -16 110 C-14.68 107.36 -13.36 104.72 -12 102 C-11.67557812 98.76854184 -11.54195531 95.91024027 -11.62866211 92.69750977 C-11.63599365 91.80371613 -11.6433252 90.90992249 -11.65087891 89.98904419 C-11.66824543 88.06127785 -11.69425912 86.13357357 -11.72810173 84.20602608 C-11.77804022 81.14876782 -11.79677505 78.09277778 -11.80628967 75.03514099 C-11.83624255 66.34719269 -11.90099507 57.66035619 -12.03735352 48.97338867 C-12.1187488 43.6469092 -12.14627813 38.32237872 -12.14007759 32.99531364 C-12.14819852 30.97344578 -12.17654557 28.95154935 -12.2259655 26.93026924 C-12.62391464 10.27492115 -12.62391464 10.27492115 -8.47341919 5.70553589 C-5.74356948 3.45172002 -3.13432462 1.63295561 0 0 Z " fill="#EBE3B8" transform="translate(116,60)"/>
<path d="M0 0 C0.598125 0.20625 1.19625 0.4125 1.8125 0.625 C1.8125 1.285 1.8125 1.945 1.8125 2.625 C-0.30039342 4.39113205 -2.41516694 6.05152935 -4.625 7.6875 C-8.55370791 10.48696651 -8.55370791 10.48696651 -12.1875 13.625 C-12.29673919 16.36222303 -12.34173094 19.07513928 -12.34521484 21.81323242 C-12.35029556 22.67180847 -12.35537628 23.53038452 -12.36061096 24.41497803 C-12.37134031 26.28656672 -12.37995035 28.15816845 -12.38673019 30.02977562 C-12.39848725 32.99300787 -12.41793338 35.95609225 -12.43984985 38.91926575 C-12.50156169 47.34692452 -12.55546827 55.77457043 -12.58886719 64.20239258 C-12.60982718 69.35189297 -12.64514702 74.50112787 -12.68962479 79.65047646 C-12.70378083 81.61320173 -12.71250633 83.57597403 -12.71567917 85.53874779 C-12.72059448 88.28937855 -12.74377034 91.03930712 -12.77099609 93.78979492 C-12.76798996 94.59886795 -12.76498383 95.40794098 -12.7618866 96.24153137 C-12.83313815 101.0952405 -13.53515667 104.40731284 -16.1875 108.625 C-20.45876895 112.57592378 -23.54599694 113.75587574 -29.29296875 113.72265625 C-30.27587891 113.71943359 -31.25878906 113.71621094 -32.27148438 113.71289062 C-33.29564453 113.70451172 -34.31980469 113.69613281 -35.375 113.6875 C-36.41076172 113.68298828 -37.44652344 113.67847656 -38.51367188 113.67382812 C-41.07167266 113.6620401 -43.62955733 113.64558515 -46.1875 113.625 C-46.35763628 110.12253944 -46.40035887 108.94061832 -44.375 105.9375 C-40.67986782 102.03121741 -38.23424268 101.33769308 -33 101 C-31.36998047 100.88785156 -31.36998047 100.88785156 -29.70703125 100.7734375 C-28.87558594 100.72445312 -28.04414062 100.67546875 -27.1875 100.625 C-27.19535522 99.59595802 -27.19535522 99.59595802 -27.20336914 98.54612732 C-27.25013571 91.39147076 -27.24099501 84.23841914 -27.19970703 77.08374023 C-27.18714525 74.41456355 -27.19764817 71.74831224 -27.21826172 69.07885742 C-27.24544834 65.23767402 -27.22138059 61.39966496 -27.1875 57.55859375 C-27.2069165 56.36979111 -27.22633301 55.18098846 -27.24633789 53.9561615 C-27.10329095 45.70013441 -27.10329095 45.70013441 -24.36016846 42.47972107 C-22.92788275 41.31590197 -21.46592943 40.18739602 -19.9732666 39.10209656 C-17.88554927 37.66568587 -17.88554927 37.66568587 -17.37792969 34.60229492 C-17.49249512 33.11886597 -17.49249512 33.11886597 -17.609375 31.60546875 C-17.6520752 30.50460938 -17.69477539 29.40375 -17.73876953 28.26953125 C-17.80435059 27.12871094 -17.86993164 25.98789063 -17.9375 24.8125 C-18.13543891 11.91615614 -18.13543891 11.91615614 -14.5859375 7.76953125 C-11.74276497 5.21198018 -8.59308941 3.36009704 -5.1875 1.625 C-2.1875 -0.375 -2.1875 -0.375 0 0 Z " fill="#EFA448" transform="translate(111.1875,56.375)"/>
<path d="M0 0 C11.80129193 -0.85931737 11.80129193 -0.85931737 15.6875 2.0625 C18 5 18 5 19 12 C11.74 12 4.48 12 -3 12 C-3 11.67 -3 11.34 -3 11 C2.445 10.505 2.445 10.505 8 10 C6.576875 8.9171875 6.576875 8.9171875 5.125 7.8125 C2.20445383 5.5903453 1.19511798 3.45191844 0 0 Z " fill="#BDB27E" transform="translate(141,158)"/>
<path d="M0 0 C1.08667969 0.01804688 2.17335938 0.03609375 3.29296875 0.0546875 C4.54013672 0.08949219 4.54013672 0.08949219 5.8125 0.125 C4.06654014 5.16794233 1.97622965 6.95694483 -2.1875 10.125 C1.4425 10.455 5.0725 10.785 8.8125 11.125 C8.8125 11.455 8.8125 11.785 8.8125 12.125 C1.5525 12.125 -5.7075 12.125 -13.1875 12.125 C-13.1875 6.64608768 -12.76039727 5.90206283 -9.1875 2.125 C-5.66070901 -0.22619399 -4.15870515 -0.08943452 0 0 Z " fill="#BE7A27" transform="translate(78.1875,157.875)"/>
<path d="M0 0 C0.8971875 0.309375 0.8971875 0.309375 1.8125 0.625 C1.8125 1.285 1.8125 1.945 1.8125 2.625 C-0.23462784 4.40292461 -2.27992561 6.05430397 -4.4375 7.6875 C-5.31728516 8.37682617 -5.31728516 8.37682617 -6.21484375 9.08007812 C-9.29664492 11.43817543 -11.36429656 12.66919914 -15.1875 13.625 C-15.5175 21.545 -15.8475 29.465 -16.1875 37.625 C-16.5175 37.625 -16.8475 37.625 -17.1875 37.625 C-19.0949413 15.30793681 -19.0949413 15.30793681 -16.05810547 9.44433594 C-13.04263251 5.87249131 -9.34980765 3.7200839 -5.1875 1.625 C-2.1875 -0.375 -2.1875 -0.375 0 0 Z " fill="#E69E46" transform="translate(111.1875,56.375)"/>
</svg>
